HIERARCHY
ROOT Hips
{
   OFFSET 0.00000 0.00000 0.00000
   CHANNELS 6 Xposition Yposition Zposition Zrotation Xrotation Yrotation
   JOINT RightUpLeg
   {
      OFFSET -8.051219 -7.800363 0.091487
      CHANNELS 3 Zrotation Xrotation Yrotation
      JOINT RightLeg
      {
         OFFSET 0.000000 -39.980428 1.235430
         CHANNELS 3 Zrotation Xrotation Yrotation
         JOINT RightFoot
         {
            OFFSET 0.228194 -37.883157 -1.314531
            CHANNELS 3 Zrotation Xrotation Yrotation
            JOINT RightToes
            {
               OFFSET 0.036000 -3.973581 7.649189
               CHANNELS 3 Zrotation Xrotation Yrotation
               End Site
               {
                  OFFSET -0.072000 -0.123703 8.801811
               }
            }
         }
      }
   }
   JOINT Spine
   {
      OFFSET 0.000000 10.701450 0.000000
      CHANNELS 3 Zrotation Xrotation Yrotation
      JOINT Spine1
      {
         OFFSET 0.000000 23.091659 0.114897
         CHANNELS 3 Zrotation Xrotation Yrotation
         JOINT HEad
         {
            OFFSET 0.000000 7.860744 0.010207
            CHANNELS 3 Zrotation Xrotation Yrotation
            End Site
            {
               OFFSET -0.261000 11.496780 2.262555
            }
         }
         JOINT LeftShoulder1
         {
            OFFSET 8.091000 -0.326027 -0.198000
            CHANNELS 3 Zrotation Xrotation Yrotation
            JOINT LeftArm
            {
               OFFSET 9.254430 -0.003042 0.289911
               CHANNELS 3 Zrotation Xrotation Yrotation
               JOINT LeftForeArm
               {
                  OFFSET 29.490208 0.089230 -1.281906
                  CHANNELS 3 Zrotation Xrotation Yrotation
                  JOINT LeftHand
                  {
                     OFFSET 24.807870 0.076826 0.919944
                     CHANNELS 3 Zrotation Xrotation Yrotation
                     End Site
                     {
                        OFFSET 15.069871 -0.540000 1.352619
                     }
                  }
               }
            }
         }
         JOINT RightShoulder
         {
            OFFSET -8.091000 -0.326027 -0.198000
            CHANNELS 3 Zrotation Xrotation Yrotation
            JOINT RightArm
            {
               OFFSET -9.254430 -0.003042 0.289911
               CHANNELS 3 Zrotation Xrotation Yrotation
               JOINT RightForeArm
               {
                  OFFSET -29.607386 0.089230 -1.281906
                  CHANNELS 3 Zrotation Xrotation Yrotation
                  JOINT RightHand
                  {
                     OFFSET -24.742889 0.076826 0.919944
                     CHANNELS 3 Zrotation Xrotation Yrotation
                     End Site
                     {
                        OFFSET -14.968080 -0.540000 1.352619
                     }
                  }
               }
            }
         }
      }
   }
   JOINT LeftUpLeg
   {
      OFFSET 8.051219 -7.800363 0.091487
      CHANNELS 3 Zrotation Xrotation Yrotation
      JOINT LeftLeg
      {
         OFFSET 0.000000 -39.980428 1.235430
         CHANNELS 3 Zrotation Xrotation Yrotation
         JOINT LeftFoot
         {
            OFFSET -0.228194 -37.883157 -1.314531
            CHANNELS 3 Zrotation Xrotation Yrotation
            JOINT LeftToes
            {
               OFFSET -0.036000 -3.973581 7.649189
               CHANNELS 3 Zrotation Xrotation Yrotation
               End Site
               {
                  OFFSET 0.072000 -0.042703 8.801811
               }
            }
         }
      }
   }
}
MOTION
Frames: 15
Frame Time: 0.016667
-139.253071 60.628351 304.091125 -10.712908 -41.472325 -13.650864 -30.411127 48.313814 45.193108 -132.101623 156.925768 73.975436 22.608179 82.251822 25.093087 -5.280161 -45.845118 21.254295 -3.694847 34.161123 105.846301 28.720211 -23.866650 -138.215407 -31.544406 -17.893950 18.268444 26.686799 74.890825 -41.727429 75.459541 -65.953372 31.740388 47.547481 -30.509314 -24.404911 -112.439114 -59.195440 -166.385512 56.494803 330.379856 32.203659 -20.403798 53.777358 443.943882 -50.986659 8.400246 63.168526 -42.928688 31.051293 -0.901431 13.580695 -26.311197 -123.587765 -33.717939 -28.403567 55.254434 -35.577240 6.149817 59.001203 -9.172591 -21.307400 -13.652047
-139.746540 62.115025 303.614154 -8.200511 -40.609166 -12.205969 -29.006181 47.439468 43.321660 -132.780899 157.204467 69.541960 22.427099 80.773284 24.667590 -5.431160 -45.476386 21.023276 -4.750754 33.849328 105.636956 28.738018 -23.372004 -137.718566 -32.037849 -16.522436 18.347493 27.780189 75.484594 -42.946276 75.607025 -64.812048 32.530470 47.628118 -30.153762 -22.622935 -113.198009 -60.262814 -164.616329 57.459499 329.772680 32.999499 -19.473602 54.791265 443.183436 -51.386057 9.622489 62.549821 -43.243789 30.767079 0.315962 12.959415 -26.878360 -120.421686 -37.185548 -30.347091 54.046863 -34.402167 6.758921 56.855745 -8.749185 -20.922727 -14.298777
-140.190962 63.472394 303.286472 -5.748491 -39.495210 -11.369151 -26.868467 45.311820 41.347117 -133.773490 157.043971 65.118976 21.356038 78.526849 23.999645 -5.717880 -44.855174 20.626207 -5.506856 32.288592 105.313027 29.106110 -23.794520 -137.208241 -32.291755 -14.222908 17.992279 29.505744 74.079385 -46.398291 75.379907 -63.448872 32.065785 47.553724 -30.922220 -20.885909 -113.282492 -61.511987 -163.256028 59.020928 329.854396 34.038371 -17.331781 55.586969 441.640032 -51.197213 11.415514 61.848811 -43.978072 30.047594 1.503599 11.136900 -26.068368 -118.675520 -39.612099 -31.246630 52.794258 -30.675312 7.001957 55.386513 -8.671448 -20.094799 -14.225087
-140.576361 64.857582 302.875896 -4.037316 -38.007161 -10.551768 -25.847635 43.824386 37.939023 -135.140716 157.017784 61.769881 19.838739 76.792022 23.893224 -7.061294 -43.496164 21.192714 -6.197528 30.921216 106.216914 28.035056 -26.019102 -135.948058 -32.023899 -10.811333 17.174388 32.460464 72.958066 -51.325965 76.384184 -61.789286 31.080735 47.301724 -30.428114 -20.113042 -112.938974 -62.502057 -162.048082 59.497641 326.231691 35.912134 -15.934247 55.416453 441.185059 -53.409569 14.714406 56.835893 -44.663905 29.010276 3.061462 10.294195 -24.876594 -116.994433 -37.470500 -30.681732 47.468681 -29.664092 6.685080 56.475317 -9.386221 -19.518002 -12.504791
-140.846937 66.199330 302.374053 -3.912591 -37.861668 -10.852751 -25.605140 43.598259 33.680687 -136.793813 155.770086 59.816222 17.590392 75.773688 23.853478 -9.024406 -41.547733 22.221558 -6.084660 30.002941 108.403613 30.274219 -26.530398 -133.540594 -31.134591 -8.238167 14.820571 35.331506 71.140908 -53.021311 76.627947 -61.424274 30.389687 46.980620 -29.604991 -19.842142 -111.838132 -63.330443 -161.609898 60.120568 324.653590 36.775313 -13.952515 54.689161 439.149444 -52.634442 16.352392 56.774373 -46.345398 27.273292 4.510251 9.597072 -22.603405 -114.731168 -35.164498 -29.416897 43.532737 -27.589086 6.494510 60.113970 -10.706813 -19.009581 -9.539551
-141.071565 67.736563 301.770416 -5.787024 -37.610819 -13.578640 -25.937753 42.548110 28.399336 -138.125454 153.629041 59.394744 14.674106 75.524373 23.989562 -11.461026 -39.286299 23.703253 -7.174218 30.418053 111.223791 34.954060 -25.794332 -130.445371 -30.056992 -3.523634 10.871666 37.288185 66.238744 -51.385286 75.506170 -62.777416 28.871688 46.441253 -30.394024 -20.047008 -109.647431 -64.820674 -162.166231 61.789163 323.566661 36.123740 -11.313150 52.627676 437.708138 -50.565516 17.344111 58.344097 -48.381689 25.008994 6.510372 9.366664 -19.810521 -114.253820 -32.358469 -27.660992 41.878250 -25.895298 5.542742 64.227766 -11.982568 -19.007349 -6.680759
-141.210163 69.247321 301.137290 -5.396038 -37.164183 -14.523863 -27.230158 40.586661 23.103342 -139.791870 148.990755 60.350192 13.253872 75.936971 25.089658 -14.510238 -36.412404 25.869051 -7.545146 30.356496 114.137864 37.584164 -27.129704 -127.619271 -28.541475 -2.706022 7.268442 40.285258 63.479013 -51.312425 74.826314 -63.228386 27.828023 45.987042 -29.772139 -19.283516 -108.414179 -66.771362 -160.482138 63.079515 321.054025 36.367930 -9.720712 50.093116 437.244231 -49.659741 19.085423 58.734443 -48.649272 23.466411 9.405840 7.947076 -17.927372 -115.482202 -28.981633 -27.240341 41.682613 -24.675471 4.266331 67.445372 -12.884056 -19.176046 -4.698929
-141.445844 70.908998 300.693221 -4.265279 -36.846658 -17.772936 -29.424479 39.865731 17.779616 -145.632843 144.813848 61.948019 13.865419 75.663319 28.135516 -18.145190 -32.999454 28.839265 -10.623435 27.365368 117.566981 39.239608 -27.711262 -124.782078 -25.673761 -5.365795 3.791856 42.558154 59.866519 -49.614177 72.395716 -64.592143 25.466932 45.813449 -30.247243 -17.937508 -107.002631 -69.636272 -157.956457 64.027867 317.649531 36.910820 -3.392874 47.239357 436.222189 -49.869421 20.544056 58.215464 -47.645754 21.957115 13.887634 6.919280 -15.818264 -117.608139 -25.688543 -27.610898 42.709002 -24.387544 5.566831 70.222234 -13.171788 -18.435215 -3.703016
-141.721618 72.595462 300.342288 0.359590 -37.488245 -19.685906 -32.287086 36.343655 12.340471 -155.076057 137.631508 64.146534 14.559057 75.546844 31.043336 -21.883149 -28.142167 31.287618 -13.098287 24.838493 120.888939 40.593477 -26.258712 -125.339859 -22.387769 -7.625797 0.284289 41.661541 56.040104 -47.562883 68.749187 -66.334565 23.177337 45.346203 -33.843058 -19.401675 -103.400014 -73.498040 -157.527986 65.188521 313.257774 35.771026 -1.324661 43.195797 438.740999 -49.013724 21.130792 60.929993 -45.566497 20.462608 22.216778 4.861383 -15.586640 -117.674952 -23.349779 -30.475426 43.052636 -25.798285 8.134130 71.729950 -13.017896 -16.721609 -3.174770
-141.845815 74.166340 300.062938 2.862550 -34.943719 -26.044987 -34.343656 24.741991 3.608628 -166.329436 125.648829 67.936231 14.149006 75.813379 32.453053 -25.541658 -20.779806 32.160144 -13.281549 24.514838 126.232319 39.304597 -22.555989 -125.738373 -20.619656 -9.265789 -2.762734 41.504000 54.116258 -46.605314 66.588723 -66.967614 20.797827 44.120877 -34.361647 -20.943549 -100.142854 -76.614430 -156.546570 66.127549 308.901999 32.470784 4.553457 40.017655 439.766511 -47.211326 21.474928 61.802263 -43.426992 19.543961 26.897449 5.121159 -18.138858 -116.953520 -21.547560 -32.232974 45.483336 -27.300539 11.850727 74.690857 -13.172463 -15.227154 -1.621692
-141.776998 75.595959 299.864135 -1.637591 -34.727168 -34.993327 -41.205978 2.456972 -7.705842 73.297683 84.572939 -174.114622 12.477941 74.521298 31.877070 -28.640925 -12.104477 30.452388 -16.077714 30.366570 132.518019 33.968662 -19.001272 -123.416505 -19.368038 -10.352285 -5.500814 41.068391 53.804525 -45.135850 63.550518 -69.023610 18.546098 43.245281 -34.158729 -22.478516 -97.369449 -79.665571 -153.329250 61.433508 307.685296 27.398655 13.231302 38.054245 438.494484 -41.819032 22.500716 63.524188 -39.735257 19.814430 29.396523 6.674077 -17.714857 -116.117341 -22.577250 -29.380998 48.693798 -29.405020 15.934601 77.525372 -13.449351 -14.283833 0.047796
-141.625908 77.352399 299.462600 -1.742791 -27.756139 -33.226121 -35.386903 13.894428 2.278601 39.191933 52.710144 -159.880262 10.626175 76.190603 31.784186 -29.914442 -10.257835 32.456390 -12.706151 26.483256 132.708526 31.061436 -18.165486 -124.054650 -17.977837 -8.858726 -7.736035 41.512056 53.684761 -44.622282 61.228479 -70.443511 15.917520 41.537881 -33.093943 -24.866671 -95.367739 -77.273728 -149.840512 56.264271 305.135149 19.941823 22.219037 38.731981 436.020862 -33.606098 21.650388 66.953018 -30.805868 17.206416 27.911812 9.100625 -21.630897 -117.428260 -21.580066 -28.823914 50.673433 -28.291096 15.576233 78.998719 -13.484496 -15.985218 0.298508
-141.381414 78.982948 299.150729 -4.201486 -27.641477 -34.204074 -23.162157 24.654743 -6.442877 -5.267480 40.416470 -90.005788 12.704377 75.769133 33.602847 -28.600951 -15.121339 33.425863 -9.290652 26.140000 132.836251 30.825228 -18.148564 -122.748349 -16.803032 -3.588859 -9.398491 43.474226 52.831237 -45.319347 58.837353 -72.159924 12.150700 39.817042 -31.089826 -25.674712 -94.889298 -72.145137 -146.506137 49.092405 299.577834 11.724802 34.457895 37.463772 430.548624 -25.568135 24.427224 68.360788 -18.264155 13.547065 24.447262 8.500866 -18.620288 -119.388879 -22.216689 -26.591994 52.580927 -26.803672 12.763381 80.027892 -13.519691 -18.827317 0.001706
-140.875614 80.347337 299.027934 -10.201482 -26.536246 -35.488321 -21.431918 26.495354 -11.603881 -2.055961 40.017498 -79.710664 12.727214 72.268948 31.836868 -27.264321 -17.946868 31.053872 -8.205574 25.591170 132.442805 29.824127 -18.514886 -121.327164 -14.936415 -0.824196 -10.560395 46.601336 52.388937 -45.076523 55.934437 -76.120443 9.578228 39.044117 -26.671930 -25.268797 -97.153335 -63.428968 -144.704743 39.813125 292.534516 4.724551 49.461382 36.234563 419.590187 -18.454445 31.916186 69.012279 -4.310714 9.844793 19.890979 10.952334 -14.683442 -121.454697 -21.743788 -24.179819 54.178874 -26.355864 10.962601 80.281572 -13.328020 -21.228476 -0.995207
-140.253523 81.416978 298.858638 -13.302512 -26.369603 -38.114873 -21.462077 26.685271 -14.533220 -3.768849 38.533690 -67.807017 13.340466 68.712652 28.642979 -26.089583 -18.519904 27.347606 -5.610885 20.551594 135.020791 27.239732 -15.706874 -119.430980 -13.261449 -1.048176 -9.411646 47.431747 55.497148 -44.639227 53.203598 -81.945604 6.624238 39.633450 -22.370085 -27.916940 -98.802545 -72.718674 -142.530024 30.891839 282.662762 1.404069 63.239253 31.961081 397.219924 -14.565515 41.127892 66.402232 -13.965313 11.789967 24.918934 11.414649 -11.282929 -123.156316 -22.124803 -23.128313 56.705617 -27.724076 10.261540 79.336445 -12.770773 -23.036789 -2.788802
